<svg xmlns="http://www.w3.org/2000/svg" width="162.376" height="53.823" viewBox="0 0 162.376 53.823">
  <path id="패스_17" data-name="패스 17" d="M36.754-25.333A10.1,10.1,0,0,1,35.462-20.4a13.8,13.8,0,0,1-3.478,4.113,17.15,17.15,0,0,1-5.123,2.8,18.619,18.619,0,0,1-6.227,1.034,4.625,4.625,0,0,1-1.857-.306,5.189,5.189,0,0,1-1.528-1.2q-2.35,5.123-3.83,9.424a69.257,69.257,0,0,0-2.326,8.342,6.28,6.28,0,0,1-2.914-1.48A11.825,11.825,0,0,1,6.11-.329q.47-.893,1.128-2.35t1.6-3.6q.94-2.138,2.186-5.123t2.938-6.98q.752-1.833,1.316-3.2t.987-2.562q.423-1.2.775-2.373t.729-2.585A27.5,27.5,0,0,0,13.7-27.448a15.844,15.844,0,0,0-3.078,1.974,3.955,3.955,0,0,1-.87-.846,9.025,9.025,0,0,1-.823-1.246,12.407,12.407,0,0,1-.658-1.387,4.473,4.473,0,0,1-.329-1.269,16.958,16.958,0,0,1,3.384-1.739,35.877,35.877,0,0,1,4.324-1.386,41.445,41.445,0,0,1,4.771-.917,35.773,35.773,0,0,1,4.723-.329,16.064,16.064,0,0,1,4.841.681,10.977,10.977,0,0,1,3.666,1.9,8.272,8.272,0,0,1,2.3,2.914A8.7,8.7,0,0,1,36.754-25.333Zm-8.366-5.64a24.7,24.7,0,0,0-3.666.282l.564.846a17.6,17.6,0,0,0-1.175,1.833q-.7,1.222-1.551,2.938T20.7-21.244q-1.011,2.115-2.139,4.465a30.249,30.249,0,0,0,6.674-.681,19.18,19.18,0,0,0,5.147-1.88,10.5,10.5,0,0,0,3.337-2.8,5.611,5.611,0,0,0,1.2-3.431,5.024,5.024,0,0,0-1.645-3.925A7.1,7.1,0,0,0,28.388-30.973ZM39.48,1.645A5.969,5.969,0,0,1,35.2-.705a8.358,8.358,0,0,1-1.6-5.264,14.494,14.494,0,0,1,.564-3.9,18.777,18.777,0,0,1,1.6-3.924,22.038,22.038,0,0,1,2.444-3.6A17.8,17.8,0,0,1,41.266-20.3a8.269,8.269,0,0,1,4.841-1.927,8.353,8.353,0,0,1,2.961,3.337,3.435,3.435,0,0,0,.423-.024,3.436,3.436,0,0,1,.423-.024q2.491,0,2.491,4.418a16.339,16.339,0,0,1-.964,5.617,17.048,17.048,0,0,1-2.679,4.817A15.959,15.959,0,0,1,44.674-.447,16.223,16.223,0,0,1,39.48,1.645Zm2.4-14.8a21.576,21.576,0,0,0-1.5,2.35,22.42,22.42,0,0,0-1.222,2.562,17.55,17.55,0,0,0-.8,2.491,9.452,9.452,0,0,0-.282,2.138,6.277,6.277,0,0,0,.376,2.162q.376,1.034.846,1.175a10.251,10.251,0,0,0,3.877-1.763,12.759,12.759,0,0,0,3.055-3.219,15.99,15.99,0,0,0,2.021-4.371,18.176,18.176,0,0,0,.729-5.217,10.31,10.31,0,0,0-.141-1.927A3.552,3.552,0,0,0,48.363-18a10.129,10.129,0,0,0-3.689,1.974A19.222,19.222,0,0,0,41.877-13.16ZM53.533-.94q.235-1.363.823-3.6t1.386-4.747q.8-2.514,1.692-5.052t1.739-4.559a21.7,21.7,0,0,1,1.081-2.279,6.523,6.523,0,0,1,1.034-1.387,7.809,7.809,0,0,1,1.363.329,10.392,10.392,0,0,1,1.363.564,10.125,10.125,0,0,1,1.175.681,4.078,4.078,0,0,1,.8.682,17.263,17.263,0,0,0-2.233,3.431,37.2,37.2,0,0,0-1.95,4.935q2.538-2.256,4.488-4.324a34.932,34.932,0,0,0,3.643-4.606,1.571,1.571,0,0,1,.987-.235,3.852,3.852,0,0,1,1.269.212,1.545,1.545,0,0,1,.846.587,12.652,12.652,0,0,0-.846,4.465,6.231,6.231,0,0,0,.611,3.1,3.556,3.556,0,0,1-.634,1.081,13.1,13.1,0,0,1-1.293,1.5,7.517,7.517,0,0,1-2.256-1.809,7.7,7.7,0,0,1-1.457-2.515,32.507,32.507,0,0,0-3.76,3.032,16.2,16.2,0,0,0-2.656,3.29A19.977,19.977,0,0,0,58.868-4,56.153,56.153,0,0,0,57.387,1.6a3.58,3.58,0,0,1-1.01-.305A8.633,8.633,0,0,1,55.2.658a8.117,8.117,0,0,1-1.057-.8A2.173,2.173,0,0,1,53.533-.94ZM76.375-18a3.03,3.03,0,0,1-.423-1.2,8.015,8.015,0,0,1-.188-1.575,15.461,15.461,0,0,0,2.35.188h2.068q.705-1.394,1.528-2.765t1.6-2.509a21.577,21.577,0,0,1,1.457-1.928,5.506,5.506,0,0,1,1.058-1.022,5.665,5.665,0,0,1,1.2.164,14.133,14.133,0,0,1,1.48.423,14.546,14.546,0,0,1,1.363.541,2.447,2.447,0,0,1,.846.564q-1.41,1.774-2.42,3.291T86.1-20.351h1.9a13.779,13.779,0,0,0,1.951-.141,1.723,1.723,0,0,1,.376.587,1.944,1.944,0,0,1,.141.729,15.508,15.508,0,0,1-5.593.893q-1.175,2.262-2.092,4.5T81.24-9.471a37.663,37.663,0,0,0-.987,3.911,17.694,17.694,0,0,0-.353,3.3q0,2.073,1.551,2.309a10.881,10.881,0,0,0,2.679-.7,8.888,8.888,0,0,0,2.256-1.316,1.952,1.952,0,0,1,.329.705,4.99,4.99,0,0,1-.964.98q-.681.56-1.48,1.1a13.835,13.835,0,0,1-1.551.91,4.019,4.019,0,0,1-1.128.42,6.282,6.282,0,0,1-2.35-.47A9.692,9.692,0,0,1,77.1.492a6.829,6.829,0,0,1-1.575-1.577A2.987,2.987,0,0,1,74.918-2.8a16.839,16.839,0,0,1,.305-2.847q.306-1.717.87-3.741t1.316-4.235q.752-2.212,1.645-4.376ZM92.731,13.583a2.209,2.209,0,0,1-1.41-1.786,2.867,2.867,0,0,0-1.6-2.068q.376-2.393.846-4.833t1.2-5.56Q92.5-3.784,93.6-7.937T96.4-18H93.953a7.963,7.963,0,0,0-1.739.189,1.371,1.371,0,0,1-.305-.517,1.828,1.828,0,0,1-.118-.611,14.19,14.19,0,0,1,1.927-.494q1.457-.305,3.2-.541A41.417,41.417,0,0,1,99.5-26.391a26.085,26.085,0,0,1,3.149-4.864,13.505,13.505,0,0,1,3.572-3.1,7.563,7.563,0,0,1,3.807-1.081,8,8,0,0,1,1.081.07,6.35,6.35,0,0,0,.8.071,4.189,4.189,0,0,1,1.128-.588,3.639,3.639,0,0,1,1.222-.258,2.835,2.835,0,0,1,1.457.611,12.682,12.682,0,0,0-.8,1.783,22.327,22.327,0,0,0-.705,2.206q-1.175,3.473-2.491,4.505-.517,0-.564-1.361a9.827,9.827,0,0,0-.282-1.923,3.9,3.9,0,0,1-.258-.751,4.143,4.143,0,0,1-.071-.845,5.948,5.948,0,0,1,.047-.68q.047-.4.188-1.337a2.658,2.658,0,0,0-1.763.98A14.467,14.467,0,0,0,107-30.177a40.321,40.321,0,0,0-2.139,4.271q-1.081,2.474-2.068,5.461h3.948a2.016,2.016,0,0,1,.4.986,10.413,10.413,0,0,1,.212,1.6h-5.17q-1.786,5.288-3.337,10.107t-2.773,8.89q-1.222,4.071-2.091,7.276T92.731,13.583ZM111.578,1.645A5.969,5.969,0,0,1,107.3-.705a8.358,8.358,0,0,1-1.6-5.264,14.494,14.494,0,0,1,.564-3.9,18.778,18.778,0,0,1,1.6-3.924,22.039,22.039,0,0,1,2.444-3.6,17.8,17.8,0,0,1,3.055-2.914,8.27,8.27,0,0,1,4.841-1.927,8.353,8.353,0,0,1,2.961,3.337,3.435,3.435,0,0,0,.423-.024,3.436,3.436,0,0,1,.423-.024q2.491,0,2.491,4.418a16.339,16.339,0,0,1-.963,5.617,17.048,17.048,0,0,1-2.679,4.817,15.959,15.959,0,0,1-4.089,3.643A16.223,16.223,0,0,1,111.578,1.645Zm2.4-14.8a21.575,21.575,0,0,0-1.5,2.35,22.419,22.419,0,0,0-1.222,2.562,17.55,17.55,0,0,0-.8,2.491,9.453,9.453,0,0,0-.282,2.138,6.277,6.277,0,0,0,.376,2.162q.376,1.034.846,1.175a10.251,10.251,0,0,0,3.878-1.763,12.759,12.759,0,0,0,3.055-3.219,15.99,15.99,0,0,0,2.021-4.371,18.176,18.176,0,0,0,.729-5.217,10.31,10.31,0,0,0-.141-1.927,3.552,3.552,0,0,0-.47-1.222,10.129,10.129,0,0,0-3.689,1.974A19.222,19.222,0,0,0,113.975-13.16ZM126.712-3.008a24.5,24.5,0,0,1,.987-5.8q.987-3.736,2.773-8.719,2.914-7.943,5.475-13.23a41.733,41.733,0,0,1,5.006-8.249,5.769,5.769,0,0,1,1.386.47q.823.376,1.622.823a13.347,13.347,0,0,1,1.434.916,3.683,3.683,0,0,1,.822.752,57.889,57.889,0,0,0-6.439,9.306A76.448,76.448,0,0,0,134.7-15.322a93.237,93.237,0,0,0-3.008,9.988,33.806,33.806,0,0,0-1.034,7.4v.987a1.545,1.545,0,0,0,.047.376,3.682,3.682,0,0,1-1.128-.329,1.207,1.207,0,0,1-.611-.564,2.617,2.617,0,0,0-.517-.682,5.454,5.454,0,0,0-.752-.681,2.51,2.51,0,0,1-.705-1.481A11.834,11.834,0,0,1,126.712-3.008ZM137.9-3.149a9.885,9.885,0,0,1,.07-1.057q.07-.634.258-1.692t.493-2.561q.305-1.5.775-3.619.094-.47.423-1.5a18.06,18.06,0,0,1,.87-2.186A14.123,14.123,0,0,1,142.1-18a4.861,4.861,0,0,1,1.857-1.6,8.275,8.275,0,0,1,2.115.963,7.135,7.135,0,0,1,2.256,2.139,16.337,16.337,0,0,0-1.81,2.444,24.28,24.28,0,0,0-1.316,2.538q-.588,1.316-1.081,2.726t-1.1,2.961q-.517,1.316-.94,2.7a10.034,10.034,0,0,0-.47,2.42q0,.846-.023,1.2t-.258.353a2.578,2.578,0,0,1-.752-.235,4.519,4.519,0,0,1-1.152-.729,5.221,5.221,0,0,1-1.057-1.246A3.3,3.3,0,0,1,137.9-3.149Zm8.977-20.4a3.857,3.857,0,0,1,.141-.846,1.855,1.855,0,0,1-.4-.7,2.592,2.592,0,0,1-.164-.846,7.667,7.667,0,0,1,.117-1.151q.118-.728.306-1.575t.47-1.763q.282-.917.564-1.668a4.132,4.132,0,0,1,1.387.306,10.746,10.746,0,0,1,1.668.8,11.344,11.344,0,0,1,1.551,1.081,6.4,6.4,0,0,1,1.081,1.1q-.517.517-1.363,1.433t-1.645,1.927q-.8,1.011-1.457,1.9a10.6,10.6,0,0,0-.846,1.269,1.852,1.852,0,0,1-.987-.493A1.113,1.113,0,0,1,146.875-23.547Zm7.614,25.192a5.969,5.969,0,0,1-4.277-2.35,8.358,8.358,0,0,1-1.6-5.264,14.494,14.494,0,0,1,.564-3.9,18.777,18.777,0,0,1,1.6-3.924,22.038,22.038,0,0,1,2.444-3.6,17.8,17.8,0,0,1,3.055-2.914,8.269,8.269,0,0,1,4.841-1.927,8.353,8.353,0,0,1,2.961,3.337,3.435,3.435,0,0,0,.423-.024,3.436,3.436,0,0,1,.423-.024q2.491,0,2.491,4.418a16.339,16.339,0,0,1-.964,5.617,17.048,17.048,0,0,1-2.679,4.817,15.959,15.959,0,0,1-4.089,3.643A16.223,16.223,0,0,1,154.489,1.645Zm2.4-14.8a21.576,21.576,0,0,0-1.5,2.35,22.419,22.419,0,0,0-1.222,2.562,17.55,17.55,0,0,0-.8,2.491,9.452,9.452,0,0,0-.282,2.138,6.277,6.277,0,0,0,.376,2.162q.376,1.034.846,1.175a10.251,10.251,0,0,0,3.877-1.763,12.759,12.759,0,0,0,3.055-3.219,15.99,15.99,0,0,0,2.021-4.371,18.176,18.176,0,0,0,.729-5.217,10.311,10.311,0,0,0-.141-1.927,3.552,3.552,0,0,0-.47-1.222,10.129,10.129,0,0,0-3.689,1.974A19.222,19.222,0,0,0,156.886-13.16Z" transform="translate(-5.538 39.551)" fill="#161616" stroke="#161616" stroke-width="1"/>
</svg>
